<svg xmlns="http://www.w3.org/2000/svg" xmlns:xlink="http://www.w3.org/1999/xlink" width="500" zoomAndPan="magnify" viewBox="0 0 375 374.999991" height="500" preserveAspectRatio="xMidYMid meet" version="1.0"><defs><g/><clipPath id="c88e9ce3fe"><path d="M 113.09375 55.464844 L 261.59375 55.464844 L 261.59375 205.464844 L 113.09375 205.464844 Z M 113.09375 55.464844 " clip-rule="nonzero"/></clipPath><clipPath id="e2e9d39313"><path d="M 135 95 L 184 95 L 184 142 L 135 142 Z M 135 95 " clip-rule="nonzero"/></clipPath><clipPath id="d9cdf5bbc3"><path d="M 135.011719 123.375 L 168.292969 95.363281 L 183.746094 113.726562 L 150.46875 141.738281 Z M 135.011719 123.375 " clip-rule="nonzero"/></clipPath><clipPath id="7a8196167d"><path d="M 135.011719 123.375 L 168.292969 95.363281 L 183.746094 113.726562 L 150.46875 141.738281 Z M 135.011719 123.375 " clip-rule="nonzero"/></clipPath></defs><g clip-path="url(#c88e9ce3fe)"><path fill="#88b552" d="M 123.871094 132.863281 C 123.871094 92.921875 156.277344 60.515625 196.253906 60.515625 C 209.988281 60.515625 222.824219 64.335938 233.78125 71.003906 C 221.128906 61.269531 205.304688 55.46875 188.109375 55.46875 C 146.691406 55.46875 113.09375 89.0625 113.09375 130.484375 C 113.09375 171.902344 146.691406 205.460938 188.109375 205.460938 C 190.234375 205.460938 192.328125 205.390625 194.417969 205.210938 C 155.304688 204.234375 123.871094 172.226562 123.871094 132.863281 Z M 261.828125 129.292969 C 259.773438 137.546875 254.113281 143.316406 244.777344 146.632812 C 237.566406 148.976562 231.042969 151.101562 225.128906 153.121094 C 214.027344 156.761719 207.933594 162.242188 206.925781 169.59375 C 206.492188 174.246094 206.601562 178.355469 207.214844 181.921875 C 223.148438 182.96875 237.960938 175.9375 251.660156 160.796875 C 240.304688 178.316406 220.585938 189.890625 198.167969 189.890625 C 162.949219 189.890625 134.433594 161.339844 134.433594 126.15625 C 134.433594 107.484375 142.472656 90.648438 155.269531 79.007812 C 138.976562 91.15625 128.414062 110.621094 128.414062 132.5 C 128.414062 169.34375 158.296875 199.226562 195.175781 199.226562 C 232.015625 199.226562 261.898438 169.34375 261.898438 132.5 C 261.898438 131.417969 261.863281 130.375 261.828125 129.292969 Z M 261.828125 129.292969 " fill-opacity="1" fill-rule="evenodd"/></g><path fill="#4f4c4c" d="M 147.230469 113.109375 L 167.273438 113.109375 L 167.273438 118.765625 L 147.230469 118.765625 Z M 147.230469 113.109375 " fill-opacity="1" fill-rule="evenodd"/><path fill="#4f4c4c" d="M 164.75 128.101562 L 164.75 120.640625 L 149.753906 120.640625 L 149.753906 141.261719 Z M 164.75 128.101562 " fill-opacity="1" fill-rule="evenodd"/><path fill="#4f4c4c" d="M 203.679688 98.832031 L 145.789062 149.839844 C 147.121094 152.761719 148.671875 155.535156 150.4375 158.167969 L 203.679688 111.304688 L 238.574219 142.054688 C 239.980469 141.585938 241.351562 141.152344 242.757812 140.683594 C 244.738281 140 246.578125 139.132812 248.238281 138.089844 Z M 203.679688 98.832031 " fill-opacity="1" fill-rule="evenodd"/><path fill="#4f4c4c" d="M 205.015625 129.832031 L 212.945312 129.832031 L 212.945312 137.765625 L 205.015625 137.765625 Z M 205.015625 129.832031 " fill-opacity="1" fill-rule="evenodd"/><path fill="#4f4c4c" d="M 194.417969 129.832031 L 202.382812 129.832031 L 202.382812 137.765625 L 194.417969 137.765625 Z M 194.417969 129.832031 " fill-opacity="1" fill-rule="evenodd"/><path fill="#4f4c4c" d="M 194.417969 140.394531 L 202.382812 140.394531 L 202.382812 148.363281 L 194.417969 148.363281 Z M 194.417969 140.394531 " fill-opacity="1" fill-rule="evenodd"/><path fill="#4f4c4c" d="M 205.015625 140.394531 L 212.945312 140.394531 L 212.945312 148.363281 L 205.015625 148.363281 Z M 205.015625 140.394531 " fill-opacity="1" fill-rule="evenodd"/><g clip-path="url(#e2e9d39313)"><g clip-path="url(#d9cdf5bbc3)"><g clip-path="url(#7a8196167d)"><path fill="#ffffff" d="M 135.246094 123.390625 L 168.382812 95.496094 L 183.535156 113.496094 L 150.398438 141.390625 Z M 135.246094 123.390625 " fill-opacity="1" fill-rule="nonzero"/><path fill="#ffffff" d="M 183.636719 113.621094 L 150.5 141.511719 C 150.429688 141.570312 150.332031 141.5625 150.277344 141.492188 L 135.121094 123.492188 C 135.066406 123.421875 135.074219 123.324219 135.140625 123.265625 L 168.28125 95.375 C 168.347656 95.316406 168.445312 95.324219 168.503906 95.394531 L 183.65625 113.394531 C 183.714844 113.464844 183.703125 113.5625 183.636719 113.621094 Z M 150.417969 141.167969 L 183.308594 113.476562 L 168.363281 95.71875 L 135.46875 123.40625 Z M 150.417969 141.167969 " fill-opacity="1" fill-rule="nonzero"/></g></g></g><g fill="#000000" fill-opacity="1"><g transform="translate(54.752598, 275.652315)"><g><path d="M 12 -4.484375 C 15.976562 -4.484375 17.96875 -6.078125 17.96875 -9.265625 C 17.96875 -10.921875 17.085938 -12.144531 15.328125 -12.9375 C 14.398438 -13.40625 13.195312 -13.835938 11.71875 -14.234375 C 10.25 -14.628906 9.023438 -15.035156 8.046875 -15.453125 C 7.066406 -15.867188 6.078125 -16.441406 5.078125 -17.171875 C 3.117188 -18.628906 2.140625 -20.875 2.140625 -23.90625 C 2.140625 -26.945312 3.191406 -29.335938 5.296875 -31.078125 C 7.410156 -32.828125 10.164062 -33.703125 13.5625 -33.703125 C 16.96875 -33.703125 20.128906 -33.019531 23.046875 -31.65625 L 23.046875 -24.1875 L 17.96875 -23.84375 L 17.96875 -26.734375 C 17.96875 -27.234375 17.898438 -27.597656 17.765625 -27.828125 C 17.398438 -28.460938 16.226562 -28.78125 14.25 -28.78125 C 12.28125 -28.78125 10.820312 -28.429688 9.875 -27.734375 C 8.9375 -27.035156 8.46875 -25.957031 8.46875 -24.5 C 8.46875 -23.4375 8.863281 -22.503906 9.65625 -21.703125 C 10.1875 -21.171875 10.972656 -20.726562 12.015625 -20.375 C 13.066406 -20.03125 14.179688 -19.675781 15.359375 -19.3125 C 16.535156 -18.945312 17.578125 -18.546875 18.484375 -18.109375 C 19.398438 -17.679688 20.359375 -17.085938 21.359375 -16.328125 C 23.378906 -14.835938 24.390625 -12.53125 24.390625 -9.40625 C 24.390625 -6.289062 23.269531 -3.835938 21.03125 -2.046875 C 18.789062 -0.253906 15.835938 0.640625 12.171875 0.640625 C 8.503906 0.640625 5.210938 -0.0351562 2.296875 -1.390625 L 2.296875 -9.265625 L 7.375 -9.609375 L 7.375 -6.578125 C 7.375 -6.078125 7.4375 -5.707031 7.5625 -5.46875 C 7.695312 -5.238281 8.101562 -5.015625 8.78125 -4.796875 C 9.46875 -4.585938 10.539062 -4.484375 12 -4.484375 Z M 12 -4.484375 "/></g></g></g><g fill="#000000" fill-opacity="1"><g transform="translate(80.73842, 275.652315)"><g><path d="M 7.671875 -12.796875 C 7.671875 -9.972656 8.203125 -7.78125 9.265625 -6.21875 C 10.328125 -4.664062 11.859375 -3.890625 13.859375 -3.890625 C 15.867188 -3.890625 17.851562 -4.601562 19.8125 -6.03125 L 21.953125 -2.1875 C 19.597656 -0.257812 16.644531 0.703125 13.09375 0.703125 C 9.539062 0.703125 6.742188 -0.414062 4.703125 -2.65625 C 2.660156 -4.90625 1.640625 -8.21875 1.640625 -12.59375 C 1.640625 -16.976562 2.804688 -20.269531 5.140625 -22.46875 C 7.484375 -24.675781 10.125 -25.78125 13.0625 -25.78125 C 16 -25.78125 18.726562 -25.101562 21.25 -23.75 L 21.25 -17.28125 L 16.671875 -16.921875 L 16.671875 -19.3125 C 16.671875 -20.207031 16.347656 -20.765625 15.703125 -20.984375 C 15.054688 -21.203125 14.382812 -21.3125 13.6875 -21.3125 C 9.675781 -21.3125 7.671875 -18.472656 7.671875 -12.796875 Z M 7.671875 -12.796875 "/></g></g></g><g fill="#000000" fill-opacity="1"><g transform="translate(104.185394, 275.652315)"><g><path d="M 4.671875 -5.578125 L 4.671875 -29.8125 C 4.671875 -30.34375 4.578125 -30.707031 4.390625 -30.90625 C 4.210938 -31.113281 3.894531 -31.234375 3.4375 -31.265625 L 1.6875 -31.359375 L 1.6875 -35.5 L 10.546875 -35.5 L 10.546875 -22.109375 C 12.273438 -24.554688 14.703125 -25.78125 17.828125 -25.78125 C 20.347656 -25.78125 22.296875 -25.054688 23.671875 -23.609375 C 25.046875 -22.171875 25.734375 -20.007812 25.734375 -17.125 L 25.734375 -4.125 L 28.578125 -3.984375 L 28.578125 0 L 16.71875 0 L 16.71875 -3.78125 L 18.375 -3.9375 C 18.863281 -4 19.222656 -4.132812 19.453125 -4.34375 C 19.691406 -4.5625 19.8125 -4.972656 19.8125 -5.578125 L 19.8125 -15.828125 C 19.8125 -17.554688 19.535156 -18.882812 18.984375 -19.8125 C 18.441406 -20.738281 17.378906 -21.203125 15.796875 -21.203125 C 14.222656 -21.203125 12.960938 -20.710938 12.015625 -19.734375 C 11.078125 -18.753906 10.609375 -17.566406 10.609375 -16.171875 L 10.609375 -4.125 L 13.4375 -3.984375 L 13.4375 0 L 1.59375 0 L 1.59375 -3.78125 L 3.234375 -3.9375 C 3.734375 -4 4.097656 -4.132812 4.328125 -4.34375 C 4.554688 -4.5625 4.671875 -4.972656 4.671875 -5.578125 Z M 4.671875 -5.578125 "/></g></g></g><g fill="#000000" fill-opacity="1"><g transform="translate(134.054151, 275.652315)"><g><path d="M 13.09375 -3.640625 C 16.707031 -3.640625 18.515625 -6.554688 18.515625 -12.390625 C 18.515625 -15.347656 18.109375 -17.585938 17.296875 -19.109375 C 16.484375 -20.640625 15.125 -21.40625 13.21875 -21.40625 C 11.3125 -21.40625 9.910156 -20.675781 9.015625 -19.21875 C 8.117188 -17.757812 7.671875 -15.765625 7.671875 -13.234375 C 7.671875 -8.554688 8.53125 -5.625 10.25 -4.4375 C 11.019531 -3.90625 11.96875 -3.640625 13.09375 -3.640625 Z M 1.640625 -12.546875 C 1.640625 -15.003906 2.003906 -17.132812 2.734375 -18.9375 C 3.460938 -20.75 4.441406 -22.132812 5.671875 -23.09375 C 8.023438 -24.882812 10.628906 -25.78125 13.484375 -25.78125 C 15.484375 -25.78125 17.171875 -25.457031 18.546875 -24.8125 C 19.921875 -24.164062 21 -23.421875 21.78125 -22.578125 C 22.5625 -21.734375 23.222656 -20.503906 23.765625 -18.890625 C 24.316406 -17.285156 24.59375 -15.382812 24.59375 -13.1875 C 24.59375 -8.613281 23.476562 -5.144531 21.25 -2.78125 C 19.03125 -0.425781 16.1875 0.75 12.71875 0.75 C 9.25 0.75 6.535156 -0.367188 4.578125 -2.609375 C 2.617188 -4.847656 1.640625 -8.160156 1.640625 -12.546875 Z M 1.640625 -12.546875 "/></g></g></g><g fill="#000000" fill-opacity="1"><g transform="translate(160.338654, 275.652315)"><g><path d="M 25.34375 0 L 1.6875 0 L 1.6875 -4.03125 L 3.328125 -4.1875 C 4.296875 -4.28125 4.78125 -4.742188 4.78125 -5.578125 L 4.78125 -28.71875 L 1.9375 -28.875 L 1.9375 -33.109375 L 24.734375 -33.109375 L 24.734375 -24.84375 L 19.65625 -24.5 L 19.65625 -26.484375 C 19.65625 -27.046875 19.570312 -27.441406 19.40625 -27.671875 C 19.25 -27.910156 18.851562 -28.03125 18.21875 -28.03125 L 10.859375 -28.03125 L 10.859375 -19.515625 L 22.359375 -19.515625 L 22.359375 -14.4375 L 10.859375 -14.4375 L 10.859375 -5.125 L 18.859375 -5.125 C 19.460938 -5.125 19.847656 -5.25 20.015625 -5.5 C 20.179688 -5.75 20.265625 -6.15625 20.265625 -6.71875 L 20.265625 -9.203125 L 25.34375 -8.859375 Z M 25.34375 0 "/></g></g></g><g fill="#000000" fill-opacity="1"><g transform="translate(187.668562, 275.652315)"><g><path d="M 1.34375 -21.0625 L 1.34375 -25.046875 L 9.75 -25.046875 L 9.75 -21.796875 C 10.613281 -23.023438 11.757812 -23.992188 13.1875 -24.703125 C 14.613281 -25.421875 16.160156 -25.78125 17.828125 -25.78125 C 20.347656 -25.78125 22.296875 -25.054688 23.671875 -23.609375 C 25.046875 -22.171875 25.734375 -20.007812 25.734375 -17.125 L 25.734375 -4.125 L 28.578125 -3.984375 L 28.578125 0 L 16.71875 0 L 16.71875 -3.78125 L 18.375 -3.9375 C 18.863281 -4 19.222656 -4.132812 19.453125 -4.34375 C 19.691406 -4.5625 19.8125 -4.972656 19.8125 -5.578125 L 19.8125 -15.828125 C 19.8125 -17.648438 19.53125 -19 18.96875 -19.875 C 18.40625 -20.757812 17.332031 -21.203125 15.75 -21.203125 C 14.175781 -21.203125 12.925781 -20.703125 12 -19.703125 C 11.070312 -18.710938 10.609375 -17.535156 10.609375 -16.171875 L 10.609375 -4.125 L 13.4375 -3.984375 L 13.4375 0 L 1.59375 0 L 1.59375 -3.78125 L 3.234375 -3.9375 C 3.734375 -4 4.097656 -4.132812 4.328125 -4.34375 C 4.554688 -4.5625 4.671875 -4.972656 4.671875 -5.578125 L 4.671875 -19.359375 C 4.671875 -20.359375 4.257812 -20.875 3.4375 -20.90625 Z M 1.34375 -21.0625 "/></g></g></g><g fill="#000000" fill-opacity="1"><g transform="translate(217.537319, 275.652315)"><g><path d="M 14.140625 -25.78125 C 16.628906 -25.78125 18.601562 -25.175781 20.0625 -23.96875 C 21.519531 -22.757812 22.25 -21.054688 22.25 -18.859375 C 22.25 -17.398438 21.929688 -16.113281 21.296875 -15 C 20.671875 -13.894531 19.894531 -13.023438 18.96875 -12.390625 C 18.039062 -11.765625 16.910156 -11.253906 15.578125 -10.859375 C 13.359375 -10.191406 10.851562 -9.859375 8.0625 -9.859375 C 8.164062 -8.097656 8.710938 -6.675781 9.703125 -5.59375 C 10.703125 -4.519531 12.226562 -3.984375 14.28125 -3.984375 C 16.34375 -3.984375 18.398438 -4.710938 20.453125 -6.171875 L 22.359375 -2.140625 C 21.691406 -1.546875 20.566406 -0.929688 18.984375 -0.296875 C 17.410156 0.328125 15.613281 0.640625 13.59375 0.640625 C 9.539062 0.640625 6.566406 -0.476562 4.671875 -2.71875 C 2.785156 -4.957031 1.84375 -8.035156 1.84375 -11.953125 C 1.84375 -15.867188 2.921875 -19.148438 5.078125 -21.796875 C 7.234375 -24.453125 10.253906 -25.78125 14.140625 -25.78125 Z M 11.875 -14.40625 C 13.082031 -14.625 14.203125 -15.101562 15.234375 -15.84375 C 16.265625 -16.59375 16.78125 -17.484375 16.78125 -18.515625 C 16.78125 -20.546875 15.785156 -21.5625 13.796875 -21.5625 C 11.929688 -21.5625 10.5 -20.820312 9.5 -19.34375 C 8.507812 -17.863281 7.960938 -16.09375 7.859375 -14.03125 C 9.328125 -14.070312 10.664062 -14.195312 11.875 -14.40625 Z M 11.875 -14.40625 "/></g></g></g><g fill="#000000" fill-opacity="1"><g transform="translate(241.631445, 275.652315)"><g><path d="M 4.734375 -5.578125 L 4.734375 -19.359375 C 4.734375 -19.890625 4.640625 -20.265625 4.453125 -20.484375 C 4.273438 -20.703125 3.953125 -20.828125 3.484375 -20.859375 L 1.390625 -21 L 1.390625 -25.046875 L 9.8125 -25.046875 L 9.8125 -21.3125 C 10.40625 -22.601562 11.332031 -23.671875 12.59375 -24.515625 C 13.851562 -25.359375 15.304688 -25.78125 16.953125 -25.78125 C 18.597656 -25.78125 20.164062 -25.414062 21.65625 -24.6875 L 21.65625 -17.28125 L 17.03125 -16.921875 L 17.03125 -19.21875 C 17.03125 -19.882812 16.863281 -20.296875 16.53125 -20.453125 C 16.164062 -20.617188 15.71875 -20.703125 15.1875 -20.703125 C 13.851562 -20.703125 12.765625 -20.226562 11.921875 -19.28125 C 11.078125 -18.34375 10.65625 -17.144531 10.65625 -15.6875 L 10.65625 -4.125 L 14.984375 -3.9375 L 14.984375 0 L 1.640625 0 L 1.640625 -3.78125 L 3.28125 -3.9375 C 3.78125 -4 4.144531 -4.132812 4.375 -4.34375 C 4.613281 -4.5625 4.734375 -4.972656 4.734375 -5.578125 Z M 4.734375 -5.578125 "/></g></g></g><g fill="#000000" fill-opacity="1"><g transform="translate(264.630383, 275.652315)"><g><path d="M 23.796875 -0.046875 C 23.492188 3.628906 22.429688 6.332031 20.609375 8.0625 C 18.785156 9.789062 15.929688 10.65625 12.046875 10.65625 C 8.160156 10.65625 5.125 10.109375 2.9375 9.015625 L 2.9375 2.09375 L 7.671875 1.6875 L 7.671875 4.078125 C 7.671875 4.972656 8.082031 5.578125 8.90625 5.890625 C 9.738281 6.210938 10.882812 6.375 12.34375 6.375 C 14.46875 6.375 15.960938 5.734375 16.828125 4.453125 C 17.691406 3.171875 18.125 1.367188 18.125 -0.953125 L 18.125 -3.6875 C 16.53125 -1.820312 14.320312 -0.890625 11.5 -0.890625 C 9.769531 -0.890625 8.25 -1.222656 6.9375 -1.890625 C 5.632812 -2.554688 4.617188 -3.453125 3.890625 -4.578125 C 2.460938 -6.835938 1.75 -9.492188 1.75 -12.546875 C 1.75 -16.890625 2.925781 -20.179688 5.28125 -22.421875 C 7.632812 -24.660156 10.769531 -25.78125 14.6875 -25.78125 C 17.9375 -25.78125 21.003906 -25.164062 23.890625 -23.9375 L 23.890625 -5.46875 C 23.890625 -2.65625 23.859375 -0.847656 23.796875 -0.046875 Z M 18.125 -10.15625 L 18.125 -20.859375 C 16.957031 -21.253906 15.628906 -21.453125 14.140625 -21.453125 C 12.109375 -21.453125 10.550781 -20.703125 9.46875 -19.203125 C 8.394531 -17.710938 7.859375 -15.691406 7.859375 -13.140625 C 7.859375 -7.898438 9.585938 -5.28125 13.046875 -5.28125 C 14.472656 -5.28125 15.675781 -5.71875 16.65625 -6.59375 C 17.632812 -7.476562 18.125 -8.664062 18.125 -10.15625 Z M 18.125 -10.15625 "/></g></g></g><g fill="#000000" fill-opacity="1"><g transform="translate(291.711383, 275.652315)"><g><path d="M 19.96875 -0.953125 L 19.96875 -4.734375 C 18.132812 -2.140625 15.441406 -0.84375 11.890625 -0.84375 C 6.753906 -0.84375 4.1875 -3.710938 4.1875 -9.453125 L 4.1875 -19.46875 C 4.1875 -20.363281 3.769531 -20.828125 2.9375 -20.859375 L 1.34375 -20.953125 L 1.34375 -25.046875 L 10.109375 -25.046875 L 10.109375 -10.75 C 10.109375 -8.988281 10.351562 -7.660156 10.84375 -6.765625 C 11.34375 -5.867188 12.375 -5.421875 13.9375 -5.421875 C 15.5 -5.421875 16.75 -5.898438 17.6875 -6.859375 C 18.632812 -7.828125 19.109375 -8.992188 19.109375 -10.359375 L 19.109375 -19.359375 C 19.109375 -19.929688 19.015625 -20.320312 18.828125 -20.53125 C 18.648438 -20.75 18.332031 -20.859375 17.875 -20.859375 L 16.28125 -20.953125 L 16.28125 -25.046875 L 25.046875 -25.046875 L 25.046875 -0.953125 C 25.046875 3.066406 24.070312 6.003906 22.125 7.859375 C 20.1875 9.722656 17.25 10.65625 13.3125 10.65625 C 9.382812 10.65625 6.320312 10.109375 4.125 9.015625 L 4.125 2.09375 L 8.859375 1.6875 L 8.859375 4.078125 C 8.859375 4.972656 9.269531 5.578125 10.09375 5.890625 C 10.925781 6.210938 12.078125 6.375 13.546875 6.375 C 17.828125 6.375 19.96875 3.929688 19.96875 -0.953125 Z M 19.96875 -0.953125 "/></g></g></g><g fill="#000000" fill-opacity="1"><g transform="translate(127.029941, 322.338905)"><g><path d="M 8.140625 0 L 0.546875 0 L 0.546875 -1.296875 L 1.078125 -1.34375 C 1.378906 -1.375 1.53125 -1.523438 1.53125 -1.796875 L 1.53125 -9.234375 L 0.625 -9.28125 L 0.625 -10.640625 L 7.953125 -10.640625 L 7.953125 -7.984375 L 6.3125 -7.875 L 6.3125 -8.515625 C 6.3125 -8.691406 6.285156 -8.816406 6.234375 -8.890625 C 6.179688 -8.972656 6.054688 -9.015625 5.859375 -9.015625 L 3.484375 -9.015625 L 3.484375 -6.265625 L 7.1875 -6.265625 L 7.1875 -4.640625 L 3.484375 -4.640625 L 3.484375 -1.640625 L 6.0625 -1.640625 C 6.257812 -1.640625 6.382812 -1.679688 6.4375 -1.765625 C 6.488281 -1.847656 6.515625 -1.976562 6.515625 -2.15625 L 6.515625 -2.953125 L 8.140625 -2.84375 Z M 8.140625 0 "/></g></g></g><g fill="#000000" fill-opacity="1"><g transform="translate(135.811828, 322.338905)"><g><path d="M 0.4375 -6.765625 L 0.4375 -8.046875 L 3.140625 -8.046875 L 3.140625 -7.015625 C 3.410156 -7.398438 3.773438 -7.707031 4.234375 -7.9375 C 4.691406 -8.164062 5.191406 -8.28125 5.734375 -8.28125 C 6.535156 -8.28125 7.15625 -8.046875 7.59375 -7.578125 C 8.039062 -7.117188 8.265625 -6.425781 8.265625 -5.5 L 8.265625 -1.328125 L 9.1875 -1.28125 L 9.1875 0 L 5.375 0 L 5.375 -1.21875 L 5.90625 -1.265625 C 6.0625 -1.285156 6.175781 -1.328125 6.25 -1.390625 C 6.332031 -1.460938 6.375 -1.597656 6.375 -1.796875 L 6.375 -5.09375 C 6.375 -5.675781 6.28125 -6.109375 6.09375 -6.390625 C 5.914062 -6.671875 5.570312 -6.8125 5.0625 -6.8125 C 4.550781 -6.8125 4.144531 -6.648438 3.84375 -6.328125 C 3.550781 -6.015625 3.40625 -5.640625 3.40625 -5.203125 L 3.40625 -1.328125 L 4.3125 -1.28125 L 4.3125 0 L 0.515625 0 L 0.515625 -1.21875 L 1.046875 -1.265625 C 1.203125 -1.285156 1.316406 -1.328125 1.390625 -1.390625 C 1.460938 -1.460938 1.5 -1.597656 1.5 -1.796875 L 1.5 -6.21875 C 1.5 -6.539062 1.367188 -6.707031 1.109375 -6.71875 Z M 0.4375 -6.765625 "/></g></g></g><g fill="#000000" fill-opacity="1"><g transform="translate(145.409518, 322.338905)"><g><path d="M 4.546875 -8.28125 C 5.347656 -8.28125 5.984375 -8.085938 6.453125 -7.703125 C 6.921875 -7.316406 7.15625 -6.769531 7.15625 -6.0625 C 7.15625 -5.59375 7.050781 -5.175781 6.84375 -4.8125 C 6.644531 -4.457031 6.394531 -4.179688 6.09375 -3.984375 C 5.789062 -3.785156 5.429688 -3.617188 5.015625 -3.484375 C 4.296875 -3.273438 3.488281 -3.171875 2.59375 -3.171875 C 2.625 -2.597656 2.796875 -2.140625 3.109375 -1.796875 C 3.429688 -1.453125 3.921875 -1.28125 4.578125 -1.28125 C 5.242188 -1.28125 5.910156 -1.515625 6.578125 -1.984375 L 7.1875 -0.6875 C 6.96875 -0.5 6.601562 -0.300781 6.09375 -0.09375 C 5.59375 0.101562 5.019531 0.203125 4.375 0.203125 C 3.070312 0.203125 2.113281 -0.15625 1.5 -0.875 C 0.894531 -1.59375 0.59375 -2.582031 0.59375 -3.84375 C 0.59375 -5.101562 0.9375 -6.15625 1.625 -7 C 2.320312 -7.851562 3.296875 -8.28125 4.546875 -8.28125 Z M 3.8125 -4.625 C 4.207031 -4.695312 4.566406 -4.851562 4.890625 -5.09375 C 5.222656 -5.332031 5.390625 -5.617188 5.390625 -5.953125 C 5.390625 -6.597656 5.070312 -6.921875 4.4375 -6.921875 C 3.832031 -6.921875 3.367188 -6.679688 3.046875 -6.203125 C 2.734375 -5.734375 2.5625 -5.171875 2.53125 -4.515625 C 3 -4.523438 3.425781 -4.5625 3.8125 -4.625 Z M 3.8125 -4.625 "/></g></g></g><g fill="#000000" fill-opacity="1"><g transform="translate(153.151663, 322.338905)"><g><path d="M 1.515625 -1.796875 L 1.515625 -6.21875 C 1.515625 -6.394531 1.484375 -6.515625 1.421875 -6.578125 C 1.367188 -6.648438 1.269531 -6.691406 1.125 -6.703125 L 0.453125 -6.75 L 0.453125 -8.046875 L 3.15625 -8.046875 L 3.15625 -6.84375 C 3.34375 -7.257812 3.640625 -7.601562 4.046875 -7.875 C 4.453125 -8.144531 4.914062 -8.28125 5.4375 -8.28125 C 5.96875 -8.28125 6.472656 -8.164062 6.953125 -7.9375 L 6.953125 -5.546875 L 5.46875 -5.4375 L 5.46875 -6.171875 C 5.46875 -6.390625 5.414062 -6.523438 5.3125 -6.578125 C 5.195312 -6.628906 5.050781 -6.65625 4.875 -6.65625 C 4.445312 -6.65625 4.097656 -6.503906 3.828125 -6.203125 C 3.554688 -5.898438 3.421875 -5.515625 3.421875 -5.046875 L 3.421875 -1.328125 L 4.8125 -1.265625 L 4.8125 0 L 0.53125 0 L 0.53125 -1.21875 L 1.0625 -1.265625 C 1.21875 -1.285156 1.332031 -1.328125 1.40625 -1.390625 C 1.476562 -1.460938 1.515625 -1.597656 1.515625 -1.796875 Z M 1.515625 -1.796875 "/></g></g></g><g fill="#000000" fill-opacity="1"><g transform="translate(160.541891, 322.338905)"><g><path d="M 7.640625 -0.015625 C 7.546875 1.171875 7.207031 2.039062 6.625 2.59375 C 6.039062 3.144531 5.125 3.421875 3.875 3.421875 C 2.625 3.421875 1.644531 3.242188 0.9375 2.890625 L 0.9375 0.671875 L 2.46875 0.546875 L 2.46875 1.3125 C 2.46875 1.601562 2.597656 1.796875 2.859375 1.890625 C 3.128906 1.992188 3.5 2.046875 3.96875 2.046875 C 4.644531 2.046875 5.125 1.835938 5.40625 1.421875 C 5.6875 1.015625 5.828125 0.441406 5.828125 -0.296875 L 5.828125 -1.1875 C 5.316406 -0.582031 4.609375 -0.28125 3.703125 -0.28125 C 3.140625 -0.28125 2.644531 -0.382812 2.21875 -0.59375 C 1.800781 -0.8125 1.476562 -1.101562 1.25 -1.46875 C 0.789062 -2.195312 0.5625 -3.050781 0.5625 -4.03125 C 0.5625 -5.425781 0.9375 -6.484375 1.6875 -7.203125 C 2.445312 -7.921875 3.457031 -8.28125 4.71875 -8.28125 C 5.757812 -8.28125 6.75 -8.085938 7.6875 -7.703125 L 7.6875 -1.765625 C 7.6875 -0.859375 7.671875 -0.273438 7.640625 -0.015625 Z M 5.828125 -3.265625 L 5.828125 -6.703125 C 5.453125 -6.828125 5.023438 -6.890625 4.546875 -6.890625 C 3.890625 -6.890625 3.390625 -6.648438 3.046875 -6.171875 C 2.703125 -5.691406 2.53125 -5.039062 2.53125 -4.21875 C 2.53125 -2.539062 3.082031 -1.703125 4.1875 -1.703125 C 4.644531 -1.703125 5.03125 -1.84375 5.34375 -2.125 C 5.664062 -2.40625 5.828125 -2.785156 5.828125 -3.265625 Z M 5.828125 -3.265625 "/></g></g></g><g fill="#000000" fill-opacity="1"><g transform="translate(169.243806, 322.338905)"><g><path d="M 3.421875 -8.046875 L 3.421875 -1.328125 L 4.34375 -1.28125 L 4.34375 0 L 0.53125 0 L 0.53125 -1.21875 L 1.0625 -1.265625 C 1.363281 -1.296875 1.515625 -1.46875 1.515625 -1.78125 L 1.515625 -6.21875 C 1.515625 -6.40625 1.484375 -6.53125 1.421875 -6.59375 C 1.367188 -6.65625 1.269531 -6.6875 1.125 -6.6875 L 0.5625 -6.71875 L 0.5625 -8.046875 Z M 1.40625 -9.4375 C 1.1875 -9.65625 1.078125 -9.929688 1.078125 -10.265625 C 1.078125 -10.609375 1.1875 -10.894531 1.40625 -11.125 C 1.632812 -11.351562 1.925781 -11.46875 2.28125 -11.46875 C 2.644531 -11.46875 2.941406 -11.351562 3.171875 -11.125 C 3.398438 -10.894531 3.515625 -10.609375 3.515625 -10.265625 C 3.515625 -9.929688 3.398438 -9.65625 3.171875 -9.4375 C 2.941406 -9.21875 2.644531 -9.109375 2.28125 -9.109375 C 1.925781 -9.109375 1.632812 -9.21875 1.40625 -9.4375 Z M 1.40625 -9.4375 "/></g></g></g><g fill="#000000" fill-opacity="1"><g transform="translate(173.978672, 322.338905)"><g><path d="M 4.546875 -8.28125 C 5.347656 -8.28125 5.984375 -8.085938 6.453125 -7.703125 C 6.921875 -7.316406 7.15625 -6.769531 7.15625 -6.0625 C 7.15625 -5.59375 7.050781 -5.175781 6.84375 -4.8125 C 6.644531 -4.457031 6.394531 -4.179688 6.09375 -3.984375 C 5.789062 -3.785156 5.429688 -3.617188 5.015625 -3.484375 C 4.296875 -3.273438 3.488281 -3.171875 2.59375 -3.171875 C 2.625 -2.597656 2.796875 -2.140625 3.109375 -1.796875 C 3.429688 -1.453125 3.921875 -1.28125 4.578125 -1.28125 C 5.242188 -1.28125 5.910156 -1.515625 6.578125 -1.984375 L 7.1875 -0.6875 C 6.96875 -0.5 6.601562 -0.300781 6.09375 -0.09375 C 5.59375 0.101562 5.019531 0.203125 4.375 0.203125 C 3.070312 0.203125 2.113281 -0.15625 1.5 -0.875 C 0.894531 -1.59375 0.59375 -2.582031 0.59375 -3.84375 C 0.59375 -5.101562 0.9375 -6.15625 1.625 -7 C 2.320312 -7.851562 3.296875 -8.28125 4.546875 -8.28125 Z M 3.8125 -4.625 C 4.207031 -4.695312 4.566406 -4.851562 4.890625 -5.09375 C 5.222656 -5.332031 5.390625 -5.617188 5.390625 -5.953125 C 5.390625 -6.597656 5.070312 -6.921875 4.4375 -6.921875 C 3.832031 -6.921875 3.367188 -6.679688 3.046875 -6.203125 C 2.734375 -5.734375 2.5625 -5.171875 2.53125 -4.515625 C 3 -4.523438 3.425781 -4.5625 3.8125 -4.625 Z M 3.8125 -4.625 "/></g></g></g><g fill="#000000" fill-opacity="1"><g transform="translate(181.720817, 322.338905)"><g><path d="M 1.234375 -0.484375 L 1.234375 -9.65625 C 1.234375 -9.90625 1.097656 -10.035156 0.828125 -10.046875 L 0.265625 -10.078125 L 0.265625 -11.40625 L 3.09375 -11.40625 L 3.09375 -7.609375 C 3.570312 -8.054688 4.21875 -8.28125 5.03125 -8.28125 C 6.03125 -8.28125 6.820312 -7.941406 7.40625 -7.265625 C 7.988281 -6.585938 8.28125 -5.640625 8.28125 -4.421875 C 8.28125 -1.335938 6.992188 0.203125 4.421875 0.203125 C 3.859375 0.203125 3.269531 0.132812 2.65625 0 C 2.050781 -0.125 1.578125 -0.285156 1.234375 -0.484375 Z M 3.09375 -5.65625 L 3.09375 -1.515625 C 3.5 -1.304688 3.96875 -1.203125 4.5 -1.203125 C 5.707031 -1.203125 6.3125 -2.1875 6.3125 -4.15625 C 6.3125 -5.957031 5.71875 -6.859375 4.53125 -6.859375 C 4.144531 -6.859375 3.804688 -6.742188 3.515625 -6.515625 C 3.234375 -6.296875 3.09375 -6.007812 3.09375 -5.65625 Z M 3.09375 -5.65625 "/></g></g></g><g fill="#000000" fill-opacity="1"><g transform="translate(190.614684, 322.338905)"><g><path d="M 4.546875 -8.28125 C 5.347656 -8.28125 5.984375 -8.085938 6.453125 -7.703125 C 6.921875 -7.316406 7.15625 -6.769531 7.15625 -6.0625 C 7.15625 -5.59375 7.050781 -5.175781 6.84375 -4.8125 C 6.644531 -4.457031 6.394531 -4.179688 6.09375 -3.984375 C 5.789062 -3.785156 5.429688 -3.617188 5.015625 -3.484375 C 4.296875 -3.273438 3.488281 -3.171875 2.59375 -3.171875 C 2.625 -2.597656 2.796875 -2.140625 3.109375 -1.796875 C 3.429688 -1.453125 3.921875 -1.28125 4.578125 -1.28125 C 5.242188 -1.28125 5.910156 -1.515625 6.578125 -1.984375 L 7.1875 -0.6875 C 6.96875 -0.5 6.601562 -0.300781 6.09375 -0.09375 C 5.59375 0.101562 5.019531 0.203125 4.375 0.203125 C 3.070312 0.203125 2.113281 -0.15625 1.5 -0.875 C 0.894531 -1.59375 0.59375 -2.582031 0.59375 -3.84375 C 0.59375 -5.101562 0.9375 -6.15625 1.625 -7 C 2.320312 -7.851562 3.296875 -8.28125 4.546875 -8.28125 Z M 3.8125 -4.625 C 4.207031 -4.695312 4.566406 -4.851562 4.890625 -5.09375 C 5.222656 -5.332031 5.390625 -5.617188 5.390625 -5.953125 C 5.390625 -6.597656 5.070312 -6.921875 4.4375 -6.921875 C 3.832031 -6.921875 3.367188 -6.679688 3.046875 -6.203125 C 2.734375 -5.734375 2.5625 -5.171875 2.53125 -4.515625 C 3 -4.523438 3.425781 -4.5625 3.8125 -4.625 Z M 3.8125 -4.625 "/></g></g></g><g fill="#000000" fill-opacity="1"><g transform="translate(198.356829, 322.338905)"><g><path d="M 1.515625 -1.796875 L 1.515625 -6.21875 C 1.515625 -6.394531 1.484375 -6.515625 1.421875 -6.578125 C 1.367188 -6.648438 1.269531 -6.691406 1.125 -6.703125 L 0.453125 -6.75 L 0.453125 -8.046875 L 3.15625 -8.046875 L 3.15625 -6.84375 C 3.34375 -7.257812 3.640625 -7.601562 4.046875 -7.875 C 4.453125 -8.144531 4.914062 -8.28125 5.4375 -8.28125 C 5.96875 -8.28125 6.472656 -8.164062 6.953125 -7.9375 L 6.953125 -5.546875 L 5.46875 -5.4375 L 5.46875 -6.171875 C 5.46875 -6.390625 5.414062 -6.523438 5.3125 -6.578125 C 5.195312 -6.628906 5.050781 -6.65625 4.875 -6.65625 C 4.445312 -6.65625 4.097656 -6.503906 3.828125 -6.203125 C 3.554688 -5.898438 3.421875 -5.515625 3.421875 -5.046875 L 3.421875 -1.328125 L 4.8125 -1.265625 L 4.8125 0 L 0.53125 0 L 0.53125 -1.21875 L 1.0625 -1.265625 C 1.21875 -1.285156 1.332031 -1.328125 1.40625 -1.390625 C 1.476562 -1.460938 1.515625 -1.597656 1.515625 -1.796875 Z M 1.515625 -1.796875 "/></g></g></g><g fill="#000000" fill-opacity="1"><g transform="translate(205.747057, 322.338905)"><g><path d="M 7.71875 -7.734375 L 7.71875 -1.78125 C 7.71875 -1.601562 7.742188 -1.484375 7.796875 -1.421875 C 7.859375 -1.359375 7.960938 -1.320312 8.109375 -1.3125 L 8.625 -1.28125 L 8.625 0 L 6.078125 0 L 6.078125 -0.921875 L 6.03125 -0.9375 C 5.5 -0.175781 4.769531 0.203125 3.84375 0.203125 C 2.75 0.203125 1.941406 -0.140625 1.421875 -0.828125 C 0.898438 -1.523438 0.640625 -2.476562 0.640625 -3.6875 C 0.640625 -5.132812 0.988281 -6.257812 1.6875 -7.0625 C 2.394531 -7.875 3.453125 -8.28125 4.859375 -8.28125 C 5.765625 -8.28125 6.71875 -8.097656 7.71875 -7.734375 Z M 5.859375 -2.546875 L 5.859375 -6.6875 C 5.554688 -6.820312 5.144531 -6.890625 4.625 -6.890625 C 3.90625 -6.890625 3.382812 -6.601562 3.0625 -6.03125 C 2.75 -5.457031 2.59375 -4.695312 2.59375 -3.75 C 2.59375 -2.019531 3.144531 -1.15625 4.25 -1.15625 C 4.71875 -1.15625 5.101562 -1.296875 5.40625 -1.578125 C 5.707031 -1.859375 5.859375 -2.179688 5.859375 -2.546875 Z M 5.859375 -2.546875 "/></g></g></g><g fill="#000000" fill-opacity="1"><g transform="translate(214.496923, 322.338905)"><g><path d="M 2.296875 -9.75 L 3.34375 -9.75 L 3.34375 -8.046875 L 5.46875 -8.046875 L 5.3125 -6.703125 L 3.34375 -6.703125 L 3.34375 -2.5 C 3.34375 -2.03125 3.425781 -1.703125 3.59375 -1.515625 C 3.769531 -1.328125 4.035156 -1.234375 4.390625 -1.234375 C 4.742188 -1.234375 5.101562 -1.34375 5.46875 -1.5625 L 5.953125 -0.34375 C 5.421875 0.03125 4.742188 0.21875 3.921875 0.21875 C 3.441406 0.21875 3.035156 0.15625 2.703125 0.03125 C 2.367188 -0.0820312 2.125 -0.210938 1.96875 -0.359375 C 1.8125 -0.515625 1.6875 -0.734375 1.59375 -1.015625 C 1.507812 -1.304688 1.460938 -1.535156 1.453125 -1.703125 C 1.441406 -1.867188 1.4375 -2.113281 1.4375 -2.4375 L 1.4375 -6.703125 L 0.296875 -6.703125 L 0.46875 -7.875 C 0.96875 -7.914062 1.34375 -8.09375 1.59375 -8.40625 C 1.851562 -8.71875 2.085938 -9.164062 2.296875 -9.75 Z M 2.296875 -9.75 "/></g></g></g><g fill="#000000" fill-opacity="1"><g transform="translate(220.207524, 322.338905)"><g><path d="M 9.015625 -1.265625 L 9.015625 0 L 6.421875 0 L 6.421875 -1.046875 C 5.828125 -0.210938 4.960938 0.203125 3.828125 0.203125 C 2.171875 0.203125 1.34375 -0.71875 1.34375 -2.5625 L 1.34375 -6.25 C 1.34375 -6.539062 1.207031 -6.691406 0.9375 -6.703125 L 0.4375 -6.734375 L 0.4375 -8.046875 L 3.25 -8.046875 L 3.25 -2.96875 C 3.25 -2.40625 3.328125 -1.976562 3.484375 -1.6875 C 3.648438 -1.40625 3.984375 -1.265625 4.484375 -1.265625 C 4.984375 -1.265625 5.382812 -1.414062 5.6875 -1.71875 C 5.988281 -2.03125 6.140625 -2.40625 6.140625 -2.84375 L 6.140625 -6.21875 C 6.140625 -6.394531 6.109375 -6.515625 6.046875 -6.578125 C 5.992188 -6.648438 5.894531 -6.691406 5.75 -6.703125 L 5.234375 -6.734375 L 5.234375 -8.046875 L 8.046875 -8.046875 L 8.046875 -1.78125 C 8.046875 -1.601562 8.070312 -1.484375 8.125 -1.421875 C 8.175781 -1.367188 8.285156 -1.332031 8.453125 -1.3125 Z M 9.015625 -1.265625 "/></g></g></g><g fill="#000000" fill-opacity="1"><g transform="translate(229.661248, 322.338905)"><g><path d="M 0.4375 -6.765625 L 0.4375 -8.046875 L 3.140625 -8.046875 L 3.140625 -7.015625 C 3.410156 -7.398438 3.773438 -7.707031 4.234375 -7.9375 C 4.691406 -8.164062 5.191406 -8.28125 5.734375 -8.28125 C 6.535156 -8.28125 7.15625 -8.046875 7.59375 -7.578125 C 8.039062 -7.117188 8.265625 -6.425781 8.265625 -5.5 L 8.265625 -1.328125 L 9.1875 -1.28125 L 9.1875 0 L 5.375 0 L 5.375 -1.21875 L 5.90625 -1.265625 C 6.0625 -1.285156 6.175781 -1.328125 6.25 -1.390625 C 6.332031 -1.460938 6.375 -1.597656 6.375 -1.796875 L 6.375 -5.09375 C 6.375 -5.675781 6.28125 -6.109375 6.09375 -6.390625 C 5.914062 -6.671875 5.570312 -6.8125 5.0625 -6.8125 C 4.550781 -6.8125 4.144531 -6.648438 3.84375 -6.328125 C 3.550781 -6.015625 3.40625 -5.640625 3.40625 -5.203125 L 3.40625 -1.328125 L 4.3125 -1.28125 L 4.3125 0 L 0.515625 0 L 0.515625 -1.21875 L 1.046875 -1.265625 C 1.203125 -1.285156 1.316406 -1.328125 1.390625 -1.390625 C 1.460938 -1.460938 1.5 -1.597656 1.5 -1.796875 L 1.5 -6.21875 C 1.5 -6.539062 1.367188 -6.707031 1.109375 -6.71875 Z M 0.4375 -6.765625 "/></g></g></g><g fill="#000000" fill-opacity="1"><g transform="translate(239.258938, 322.338905)"><g><path d="M 7.640625 -0.015625 C 7.546875 1.171875 7.207031 2.039062 6.625 2.59375 C 6.039062 3.144531 5.125 3.421875 3.875 3.421875 C 2.625 3.421875 1.644531 3.242188 0.9375 2.890625 L 0.9375 0.671875 L 2.46875 0.546875 L 2.46875 1.3125 C 2.46875 1.601562 2.597656 1.796875 2.859375 1.890625 C 3.128906 1.992188 3.5 2.046875 3.96875 2.046875 C 4.644531 2.046875 5.125 1.835938 5.40625 1.421875 C 5.6875 1.015625 5.828125 0.441406 5.828125 -0.296875 L 5.828125 -1.1875 C 5.316406 -0.582031 4.609375 -0.28125 3.703125 -0.28125 C 3.140625 -0.28125 2.644531 -0.382812 2.21875 -0.59375 C 1.800781 -0.8125 1.476562 -1.101562 1.25 -1.46875 C 0.789062 -2.195312 0.5625 -3.050781 0.5625 -4.03125 C 0.5625 -5.425781 0.9375 -6.484375 1.6875 -7.203125 C 2.445312 -7.921875 3.457031 -8.28125 4.71875 -8.28125 C 5.757812 -8.28125 6.75 -8.085938 7.6875 -7.703125 L 7.6875 -1.765625 C 7.6875 -0.859375 7.671875 -0.273438 7.640625 -0.015625 Z M 5.828125 -3.265625 L 5.828125 -6.703125 C 5.453125 -6.828125 5.023438 -6.890625 4.546875 -6.890625 C 3.890625 -6.890625 3.390625 -6.648438 3.046875 -6.171875 C 2.703125 -5.691406 2.53125 -5.039062 2.53125 -4.21875 C 2.53125 -2.539062 3.082031 -1.703125 4.1875 -1.703125 C 4.644531 -1.703125 5.03125 -1.84375 5.34375 -2.125 C 5.664062 -2.40625 5.828125 -2.785156 5.828125 -3.265625 Z M 5.828125 -3.265625 "/></g></g></g></svg>